<svg width="20" height="20" viewBox="0 0 20 20" fill="none" xmlns="http://www.w3.org/2000/svg">
<circle cx="10.1667" cy="10.1667" r="7.66669" stroke="#CCCCCC"/>
<path d="M10.2053 6.45459C10.8913 6.45459 11.4457 6.64861 11.8684 7.03665C12.2911 7.42469 12.5024 7.94439 12.5024 8.59575C12.5024 9.32332 12.2772 9.86381 11.8268 10.2172C11.3764 10.5637 10.7666 10.7369 9.99746 10.7369L9.96628 11.7243H9.14515L9.10358 10.0821H9.405C10.091 10.0821 10.628 9.97814 11.0161 9.77026C11.4041 9.56239 11.5981 9.17088 11.5981 8.59575C11.5981 8.17999 11.4734 7.85085 11.2239 7.60832C10.9745 7.36579 10.6384 7.24453 10.2157 7.24453C9.78611 7.24453 9.44658 7.36233 9.19712 7.59793C8.9546 7.82659 8.83333 8.14188 8.83333 8.54378H7.93945C7.93945 8.12802 8.033 7.76423 8.22009 7.45241C8.40718 7.13366 8.6705 6.88767 9.01003 6.71444C9.3565 6.54121 9.75493 6.45459 10.2053 6.45459ZM9.55052 13.8551C9.37036 13.8551 9.21791 13.7927 9.09318 13.668C8.96846 13.5433 8.90609 13.3908 8.90609 13.2107C8.90609 13.0305 8.96846 12.8781 9.09318 12.7533C9.21791 12.6286 9.37036 12.5662 9.55052 12.5662C9.72375 12.5662 9.86927 12.6286 9.98706 12.7533C10.1118 12.8781 10.1742 13.0305 10.1742 13.2107C10.1742 13.3908 10.1118 13.5433 9.98706 13.668C9.86927 13.7927 9.72375 13.8551 9.55052 13.8551Z" fill="#5D5D5D"/>
</svg>
