<svg width="10px" height="10px" viewBox="0 0 14 14" version="1.1" xmlns="http://www.w3.org/2000/svg" xmlns:xlink="http://www.w3.org/1999/xlink" fill="#8e8e8e">
  <g stroke="none" stroke-width="1">
    <g transform="translate(-767.000000, -258.000000)">
      <g transform="translate(767.000000, 258.000000)">
        <path d="M7,14 C10.8659932,14 14,10.8659932 14,7 C14,3.13400675 10.8659932,0 7,0 C3.13400675,0 0,3.13400675 0,7 C0,10.8659932 3.13400675,14 7,14 Z M7,12.8 C3.79674845,12.8 1.2,10.2032515 1.2,7 C1.2,3.79674845 3.79674845,1.2 7,1.2 C10.2032515,1.2 12.8,3.79674845 12.8,7 C12.8,10.2032515 10.2032515,12.8 7,12.8 Z" id="Oval" fill-rule="nonzero"></path>
        <circle id="Oval" cx="7" cy="4.2" r="1"></circle>
        <path d="M6.25,6.65601787 L6.25,9.98887931 C6.25,10.4030929 6.58578644,10.7388793 7,10.7388793 C7.41421356,10.7388793 7.75,10.4030929 7.75,9.98887931 L7.75,6.65601787 C7.75,6.24180431 7.41421356,5.90601787 7,5.90601787 C6.58578644,5.90601787 6.25,6.24180431 6.25,6.65601787 Z" id="Line" fill-rule="nonzero"></path>
      </g>
    </g>
  </g>
</svg>
